<?xml version="1.0" standalone="no"?>
<!DOCTYPE svg PUBLIC "-//W3C//DTD SVG 20010904//EN"
 "http://www.w3.org/TR/2001/REC-SVG-20010904/DTD/svg10.dtd">
<svg version="1.0" xmlns="http://www.w3.org/2000/svg"
 width="263.000000pt" height="143.000000pt" viewBox="0 0 263.000000 143.000000"
 preserveAspectRatio="xMidYMid meet">

<g transform="translate(0.000000,143.000000) scale(0.100000,-0.100000)"
fill="#000370 " stroke="none">
<path d="M160 1272 c1 -20 1 -41 0 -47 -1 -5 -1 -14 0 -20 1 -5 2 -97 1 -202
-2 -148 1 -193 10 -193 7 0 5 -6 -6 -13 -11 -9 -15 -19 -10 -26 4 -7 7 -89 6
-183 l-2 -170 38 2 c21 1 120 2 221 1 l182 -1 0 -185 c0 -102 3 -185 6 -185 4
0 47 41 96 90 49 50 86 90 82 90 -4 0 11 14 34 31 23 17 42 37 42 45 0 8 5 14
10 14 13 0 69 50 81 71 8 15 -3 17 -101 18 -60 1 -130 8 -154 15 -177 53 -242
282 -120 424 81 95 118 102 529 102 l324 0 0 180 0 180 -635 0 -636 0 2 -38z
m280 24 c0 -3 -4 -8 -10 -11 -5 -3 -10 -1 -10 4 0 6 5 11 10 11 6 0 10 -2 10
-4z m-196 -21 c3 -8 1 -15 -4 -15 -6 0 -10 7 -10 15 0 8 2 15 4 15 2 0 6 -7
10 -15z m703 -7 c-3 -8 -6 -5 -6 6 -1 11 2 17 5 13 3 -3 4 -12 1 -19z m114
-21 c-10 -9 -11 -8 -5 6 3 10 9 15 12 12 3 -3 0 -11 -7 -18z m-790 -50 c-10
-9 -11 -8 -5 6 3 10 9 15 12 12 3 -3 0 -11 -7 -18z m-22 -10 c-2 -1 -12 -9
-22 -16 -15 -12 -17 -12 -11 3 3 9 13 16 22 16 8 0 13 -1 11 -3z m708 -3 c-3
-3 -12 -4 -19 -1 -8 3 -5 6 6 6 11 1 17 -2 13 -5z m-83 -44 c-5 -5 -10 3 -11
18 -1 22 0 24 9 8 6 -10 6 -22 2 -26z m-157 -12 c-3 -8 -6 -5 -6 6 -1 11 2 17
5 13 3 -3 4 -12 1 -19z m24 -35 c13 -16 12 -17 -3 -4 -10 7 -18 15 -18 17 0 8
8 3 21 -13z m-207 -121 c2 -4 -4 -8 -15 -8 -10 0 -19 4 -19 8 0 4 6 8 14 8 8
0 17 -4 20 -8z m666 4 c0 -2 -7 -7 -16 -10 -8 -3 -12 -2 -9 4 6 10 25 14 25 6z
m44 -4 c2 -4 -4 -8 -15 -8 -10 0 -19 4 -19 8 0 10 27 10 34 0z m-788 -50 c1
-7 0 -8 -3 -2 -8 18 -42 11 -86 -17 -69 -45 -85 -52 -107 -46 -14 4 -20 1 -20
-11 0 -9 -7 -19 -15 -22 -8 -4 -15 -13 -15 -21 0 -8 -5 -11 -12 -7 -8 5 -5 13
10 25 12 9 22 22 22 27 0 18 30 36 42 24 12 -12 22 -7 92 40 42 28 87 33 92
10z m74 14 c0 -3 -4 -8 -10 -11 -5 -3 -10 -1 -10 4 0 6 5 11 10 11 6 0 10 -2
10 -4z m-43 -42 c-3 -3 -12 -4 -19 -1 -8 3 -5 6 6 6 11 1 17 -2 13 -5z m-41
-29 c-10 -8 -24 -11 -30 -8 -6 4 0 10 14 14 36 10 37 10 16 -6z m-81 -35 c-6
-10 6 -14 35 -11 13 1 13 0 -1 -8 -21 -14 -59 -3 -52 15 3 8 9 14 15 14 5 0 6
-4 3 -10z m-40 -29 c-3 -6 -18 -16 -34 -24 -25 -12 -29 -12 -24 -1 3 8 14 14
24 14 10 0 19 5 19 10 0 6 5 10 11 10 5 0 8 -4 4 -9z m-76 -44 c-2 -1 -12 -9
-22 -16 -15 -12 -17 -12 -11 3 3 9 13 16 22 16 8 0 13 -1 11 -3z m211 -260 c0
-4 -6 -2 -14 5 -8 7 -12 17 -9 22 5 8 23 -12 23 -27z m68 13 c-7 -10 -14 -17
-17 -15 -4 4 18 35 25 35 2 0 -1 -9 -8 -20z m-191 -56 c-3 -3 -12 -4 -19 -1
-8 3 -5 6 6 6 11 1 17 -2 13 -5z m580 -76 c-3 -8 -6 -5 -6 6 -1 11 2 17 5 13
3 -3 4 -12 1 -19z m-72 -17 c3 -5 1 -12 -5 -16 -5 -3 -10 1 -10 9 0 18 6 21
15 7z m-105 -116 c13 -14 21 -25 18 -25 -2 0 -15 11 -28 25 -13 14 -21 25 -18
25 2 0 15 -11 28 -25z"/>
<path d="M702 734 c-38 -26 -23 -84 22 -84 18 0 18 1 3 18 -16 18 -17 45 -2
59 4 4 5 2 1 -4 -4 -7 -3 -13 3 -13 5 0 11 4 13 10 2 6 17 6 42 -1 30 -8 41
-8 47 2 4 7 5 17 3 21 -8 13 -42 9 -47 -4 -4 -10 -6 -10 -6 0 -1 17 -52 15
-79 -4z"/>
<path d="M946 727 c-32 -32 -35 -93 -7 -128 16 -20 29 -24 74 -24 73 0 97 21
97 85 0 66 -16 82 -83 88 -50 4 -58 2 -81 -21z m112 -23 c25 -17 29 -51 9 -78
-10 -13 -24 -17 -57 -14 -45 3 -45 3 -48 43 -3 29 1 43 14 52 24 17 55 16 82
-3z"/>
<path d="M1215 726 c-30 -31 -34 -93 -7 -125 29 -37 142 -41 142 -6 0 11 -13
15 -54 15 -58 0 -66 7 -66 60 0 38 30 54 82 46 34 -6 39 -4 36 11 -2 14 -15
19 -56 21 -44 3 -55 -1 -77 -22z"/>
<path d="M1430 717 c0 -18 6 -39 13 -46 10 -11 10 -13 0 -7 -10 5 -13 -5 -13
-38 0 -35 4 -46 15 -46 13 0 16 14 14 85 -1 65 -5 85 -15 85 -9 0 -14 -12 -14
-33z"/>
<path d="M1576 674 c-20 -42 -36 -80 -36 -85 0 -15 30 -10 36 6 9 21 93 20
109 -1 6 -9 18 -15 27 -13 12 3 8 19 -23 87 -35 76 -40 82 -55 68 -20 -20 -31
-21 -14 -1 7 9 8 15 2 15 -5 0 -26 -34 -46 -76z m74 0 c14 -35 14 -34 -19 -34
-29 0 -30 1 -20 30 13 37 26 38 39 4z"/>
<path d="M1800 665 l0 -85 80 0 c64 0 80 3 80 15 0 12 -13 15 -60 15 l-60 0 0
70 c0 63 -2 70 -20 70 -18 0 -20 -7 -20 -85z"/>
<path d="M2040 665 c0 -69 3 -85 15 -85 12 0 15 16 15 85 0 69 -3 85 -15 85
-12 0 -15 -16 -15 -85z"/>
<path d="M2156 738 c3 -5 13 -7 21 -4 8 3 11 1 8 -4 -3 -6 -14 -11 -23 -12 -9
-1 7 -4 37 -7 l54 -6 -52 -50 c-28 -27 -51 -55 -51 -62 0 -10 22 -13 80 -13
64 0 80 3 80 15 0 11 -12 15 -50 15 -27 0 -50 3 -50 6 0 4 17 26 39 49 21 23
44 52 50 63 11 21 10 22 -69 21 -49 -1 -78 -5 -74 -11z"/>
<path d="M2390 665 l0 -85 75 0 c60 0 75 3 75 15 0 12 -13 15 -60 15 -47 0
-60 3 -60 15 0 11 12 15 50 15 43 0 50 3 50 20 0 17 -7 20 -50 20 -38 0 -50 4
-50 15 0 12 13 15 60 15 53 0 60 2 60 20 0 18 -7 20 -75 20 l-75 0 0 -85z"/>
<path d="M742 661 c7 -11 23 -21 35 -23 49 -6 26 -23 -34 -26 -96 -5 -80 -41
17 -42 45 0 80 24 80 54 0 33 -25 53 -46 36 -12 -11 -15 -11 -12 1 2 9 -7 15
-25 17 -26 3 -27 2 -15 -17z"/>
</g>
</svg>
